<?xml version="1.0" encoding="UTF-8"?><svg id="Layer_2" xmlns="http://www.w3.org/2000/svg" viewBox="0 0 69.07 69.04"><defs><style>.cls-1{fill:#fff;}</style></defs><g id="Layer_1-2"><path class="cls-1" d="m49.06,3.2s.07.03.11.05c-.05-.02-.1-.04-.15-.07C36.25-2.71,20.64-.42,10.11,10.1-.95,21.17-2.94,37.88,4.16,50.97l11.98-11.98c-1.5-6.2.16-13.02,5-17.86,4.84-4.84,11.66-6.5,17.86-5l11.98-11.98c-.64-.34-1.28-.66-1.92-.94Z"/><path class="cls-1" d="m64.91,18.07l-11.98,11.98c1.5,6.2-.16,13.02-5,17.86-4.84,4.84-11.66,6.5-17.86,5l-11.98,11.98c.64.34,1.28.65,1.92.94-.04-.02-.07-.03-.11-.05.05.02.1.04.15.07,12.77,5.9,28.38,3.6,38.9-6.92,11.07-11.07,13.05-27.78,5.95-40.87Z"/></g></svg>